<?xml version="1.0"?><svg id="Rot" xmlns="http://www.w3.org/2000/svg" viewBox="0 0 50 50"><defs></defs><path class="cls-1" fill="#FF1900" d="M25,0C11.19,0,0,11.19,0,25s11.19,25,25,25,25-11.19,25-25S38.81,0,25,0Zm-5.04,12.49c2.68,0,4.85,3.16,4.85,7.05s-2.17,7.05-4.85,7.05-4.85-3.16-4.85-7.05,2.17-7.05,4.85-7.05Zm16.71,24.24c-3.12,3.11-7.27,4.82-11.67,4.82-6.55,0-12.5-3.88-15.15-9.87-.19-.44,0-.95,.45-1.15,.44-.19,.95,0,1.15,.45,2.37,5.37,7.69,8.83,13.55,8.83,3.94,0,7.65-1.53,10.45-4.31,.34-.34,.89-.34,1.23,0,.34,.34,.34,.89,0,1.23Zm-1.53-10.14c-2.68,0-4.85-3.16-4.85-7.05s2.17-7.05,4.85-7.05,4.85,3.16,4.85,7.05-2.17,7.05-4.85,7.05Z"></path></svg>