<?xml version="1.0"?><svg id="Rot" xmlns="http://www.w3.org/2000/svg" viewBox="0 0 50 50"><defs></defs><rect class="cls-1" fill="#FF1900" x="26.27" y="19.17" width="0" height="0"></rect><path class="cls-1" fill="#FF1900" d="M37.79,1.47c-2.12,0-3.84,1.72-3.84,3.84h0v13.86c0-2.12-1.72-3.84-3.84-3.84s-3.84,1.77-3.84,3.89c0-.02,0-.03,0-.05h0c-.03-2.1-1.73-3.84-3.83-3.84s-3.83,1.73-3.84,3.84h0V3.82h0C18.6,1.7,16.88-.02,14.76-.02s-3.84,1.72-3.84,3.84V24.69c0-2.12-1.72-3.84-3.84-3.84s-3.84,1.72-3.84,3.84h0v7.68h0c0,4.06,3.16,7.35,7.15,7.62v.05h1.57c2.22,5.75,7.78,9.83,14.31,9.83,8.48,0,15.35-6.87,15.35-15.35V5.31h0c0-2.12-1.72-3.84-3.84-3.84Z"></path></svg>