<?xml version="1.0"?><svg id="Rot" xmlns="http://www.w3.org/2000/svg" viewBox="0 0 50 50"><defs></defs><path class="cls-1" fill="#FF1900" d="M25.29,49.93l-6.15-12.32-14.65,5.42,7.16-10.9L.14,31.5l9.37-6.41L.17,20.22l9.21-1.91L1.66,6.72l12.1,5.73L12.52,.11l9.21,10.05L29.23,.24l1.25,11.15,14.26-6.34-8.34,12.84,13.46,7.29-14.02,4.14,10.25,18.73,1.07,1.94-1.87-1.21-16.98-11.25-3.01,12.4Zm-5.59-13.72l5.23,10.48,2.67-10.98,16.42,10.88-9.83-17.96,12.76-3.76-12.15-6.57,6.95-10.69-12.21,5.43-1.11-9.88-6.62,8.76L13.97,3.35l1.11,10.97L4.83,9.46l6.4,9.6-7.77,1.61,8.22,4.28L3.49,30.56l10.17,.55-6.36,9.69,12.4-4.58Zm7.36-23.82l-3.8,5.03s-4.59-4.59-4.59-5.01,.63,6.28,.63,6.28l-6.02-2.85,3.8,5.7-4.57,.95,4.73,2.47-4.73,3.24,5.84,.32-3.64,5.55,7.29-2.69,3.06,6.14,1.53-6.3,9.51,6.3-5.7-10.42,7.21-2.13-6.9-3.73,4.12-6.34-7.13,3.17-.63-5.66Z"></path></svg>