<?xml version="1.0"?><svg id="Rot" xmlns="http://www.w3.org/2000/svg" viewBox="0 0 50 50"><defs></defs><path class="cls-1" fill="#FF1900" d="M17.42,24.94c0-4.19,3.39-7.58,7.58-7.58s7.58,3.39,7.58,7.58-3.39,7.58-7.58,7.58-7.58-3.39-7.58-7.58Zm13.17,22.84c1.74-1.92,2.44-5.13,2.1-9.52,3.63,2.49,6.65,3.46,9.19,2.93,1.93-.39,3.53-1.65,4.77-3.75,1.22-2.07,1.54-4.07,.93-5.93-.8-2.46-3.22-4.67-7.2-6.58,3.97-1.9,6.31-4.03,7.14-6.49,.62-1.87,.33-3.88-.86-6h0c-1.18-2.09-2.75-3.36-4.66-3.77-2.54-.54-5.66,.45-9.3,2.95,.34-4.39-.33-7.48-2.05-9.43C29.33,.72,27.44-.04,25.01-.06c-.04,0-.07,0-.11,0-2.35,0-4.2,.72-5.49,2.16-1.73,1.92-2.44,5.12-2.1,9.52-3.63-2.49-6.65-3.46-9.19-2.93-1.93,.39-3.53,1.65-4.77,3.75-1.22,2.07-1.54,4.07-.93,5.92,.8,2.46,3.22,4.67,7.2,6.58-3.97,1.9-6.31,4.03-7.14,6.49-.62,1.87-.33,3.88,.86,6,1.18,2.09,2.75,3.36,4.67,3.77,2.53,.54,5.66-.45,9.3-2.95-.34,4.39,.33,7.48,2.05,9.43,1.3,1.47,3.2,2.23,5.63,2.25,.04,0,.07,0,.11,0,2.35,0,4.2-.72,5.49-2.16Zm-13.05-11.16c-3.76,2.78-6.88,3.92-9.28,3.41-1.58-.34-2.85-1.38-3.87-3.19-1.04-1.83-1.29-3.48-.77-5.03,.77-2.3,3.3-4.41,7.6-6.28l1.33-.64-1.4-.57c-4.28-1.87-6.84-4-7.59-6.33-.5-1.54-.23-3.16,.83-4.95,1.07-1.81,2.37-2.86,3.97-3.18,2.38-.49,5.47,.66,9.18,3.4l.14,.11,1.14,.81-.21-1.54c-.53-4.64,.04-7.92,1.68-9.74,1.08-1.2,2.66-1.76,4.7-1.76,2.11,.02,3.66,.62,4.74,1.85,1.61,1.82,2.16,5.06,1.64,9.72l-.03,1.39,1.11-.84c3.76-2.78,6.88-3.93,9.28-3.41,1.58,.34,2.85,1.38,3.87,3.19h0c1.04,1.83,1.29,3.48,.77,5.03-.77,2.3-3.3,4.41-7.53,6.25l-.16,.07-1.28,.55,1.44,.62c4.28,1.87,6.84,4,7.59,6.33,.5,1.54,.23,3.16-.83,4.95-1.07,1.81-2.37,2.86-3.97,3.18-2.37,.48-5.47-.66-9.18-3.4l-.14-.1-1.12-.85,.16,1.39,.02,.17c.53,4.64-.04,7.92-1.68,9.74-1.08,1.2-2.63,1.75-4.7,1.76-2.11-.02-3.66-.63-4.74-1.85-1.61-1.82-2.16-5.06-1.64-9.73l.13-1.49-1.21,.95Z"></path></svg>