<?xml version="1.0"?><svg id="Rot" xmlns="http://www.w3.org/2000/svg" viewBox="0 0 50 50"><defs></defs><path class="cls-1" fill="#FF1900" d="M17.66,39.77c-2.77,0-5.39-.29-7.75-.89-5.36-1.34-8.79-4.06-9.65-7.66-.86-3.59,.96-7.57,5.12-11.21,4.06-3.54,9.91-6.35,16.45-7.93,13.64-3.27,26.17-.02,27.91,7.25,1.75,7.27-7.93,15.86-21.58,19.13-3.59,.86-7.15,1.29-10.51,1.29Zm14.73-27.79c-3.22,0-6.71,.41-10.28,1.27-6.36,1.53-12.03,4.25-15.95,7.67-3.82,3.33-5.5,6.89-4.75,10.03,.75,3.14,3.88,5.55,8.79,6.79,5.05,1.26,11.33,1.12,17.69-.41h0c13.01-3.12,22.3-11.06,20.7-17.7-1.16-4.81-7.72-7.64-16.2-7.64Zm8.86,16.88l-.66-2.77-3.28,.79-.78-3.23,2.95-.71-.64-2.66-2.95,.71-.66-2.77,3.08-.74-.66-2.75-6.26,1.5,3.4,14.17,6.47-1.55Zm-12.37-3.49l.59,2.44c.1,.4,.09,.7-.02,.89-.11,.19-.27,.31-.47,.36-.22,.05-.42-.01-.61-.19-.18-.18-.31-.42-.38-.71l-1.61-6.7c-.08-.33-.09-.6-.04-.81,.05-.21,.22-.35,.52-.42,.5-.12,.85,.24,1.05,1.09l.4,1.65,3.1-.74-.6-2.5c-.13-.55-.35-1.02-.65-1.39-.3-.38-.66-.65-1.08-.83-.42-.18-.87-.28-1.36-.3-.49-.02-1,.03-1.54,.16-1.32,.32-2.21,.9-2.66,1.75-.45,.85-.51,1.97-.17,3.38l1.58,6.58c.28,1.17,.85,2,1.7,2.47,.85,.47,1.84,.57,2.95,.3,1.26-.3,2.17-.83,2.73-1.57,.56-.75,.69-1.74,.4-2.97l-.64-2.68-3.17,.76Zm-4.48,7.53l-3.4-14.17-3.03,.73,3.4,14.17,3.03-.73Zm-11-12.35l1.63,6.78-3.07-6.43-3.22,.77,3.4,14.17,3.06-.74-1.7-7.09,3.27,6.72,3.06-.74-3.4-14.17-3.03,.73Z"></path></svg>