<?xml version="1.0"?><svg id="Rot" xmlns="http://www.w3.org/2000/svg" viewBox="0 0 50 50"><defs></defs><path class="cls-1" fill="#FF1900" d="M40.53,25.86c.35-.76,.88-1.58-1.49-4.36,1.86-1.88,3.76-5.58,.99-9.85-2.67-4.11-7.15-2.85-10.44-1.08-.14,.07-.24,.13-.26,.14-.07,.03-.21,.08-.38,.17-3.25,1.53-6.04,1.24-8.49-.91l4.42-.3-4.6-2.44,3.42-3.42-4.46,.98-.21-4.67-2.58,3.77L12.52,.75l1.46,4.74-5.41,1.19,5.2,1.74-2.93,4.12,5.02-2.16,1.26,5.58,1.36-4.77c2.39,2.32,6.14,4.18,11.39,1.71,.08-.04,.14-.07,.16-.08,.1-.03,.31-.13,.59-.29,3.7-2,6.09-1.89,7.54,.33,2.2,3.39,.41,5.94-.66,7.03-2.91-2.64-4.48-1.14-4.48-1.14l-1.28,1.03c-2.16-1.09-4.6-1.72-7.19-1.72-8.82,0-15.97,7.15-15.97,15.97s7.15,15.97,15.97,15.97,15.97-7.15,15.97-15.97c0-2.38-.54-4.64-1.47-6.67,.24-.16,1.14-.77,1.47-1.49Zm-28.36,10.18c-.63-16.25,14.93-15,14.93-15-11.98,3.77-14.93,15-14.93,15Z"></path></svg>