<?xml version="1.0"?>


<svg width="431.19333mm" height="303.59058mm" viewBox="0 0 431.19333 303.59057" version="1.1" id="svg24256" xml:space="preserve" xmlns="http://www.w3.org/2000/svg" xmlns:svg="http://www.w3.org/2000/svg"><defs id="defs24253"></defs><g id="layer1" transform="translate(-126.25293,-128.67746)"><path id="path1" d="m 260.20963,229.98496 v 2.06566 c 10.34106,-14.25938 27.24163,-22.79699 45.36313,-22.79699 h 34.52054 c 11.61318,0 21.05888,9.0825 21.05888,20.24081 v 5.38396 c 9.719,-15.33549 27.2627,-25.63497 47.32015,-25.63497 h 33.85518 c 11.60981,0 21.05552,9.0825 21.05552,20.23913 v 5.37207 c 7.26972,-11.44858 18.91008,-20.08295 32.69588,-23.71355 -26.00838,-48.92926 -78.63272,-82.46362 -139.19046,-82.46362 -53.09281,0 -100.08742,25.786 -128.39597,65.11679 18.4175,3.08067 31.71715,18.17852 31.71715,36.19071 z m 214.87318,98.62073 c -6.08671,0 -11.47067,-2.78395 -15.10464,-6.94856 -0.59579,0.99787 -1.2255,1.98252 -1.96895,2.91145 l -0.47536,0.53959 -38.94718,40.62091 c -2.98054,3.60024 -7.40892,5.65234 -12.22427,5.65234 -3.10275,0 -6.08329,-0.866 -8.63947,-2.50696 l -40.28806,-25.55958 c 0,0 -4.63714,-2.65875 -5.57915,-3.5439 l -0.23769,-0.14915 0.0144,-0.0289 c -1.88745,-1.86892 -3.0569,-4.45873 -3.0569,-7.32298 v -1.14963 c 0,-1.4653 0.31418,-2.85102 0.86734,-4.11487 -2.47813,1.07087 -5.20574,1.70144 -8.09294,1.70144 0,0 -21.58506,-0.0828 -21.32707,-0.0828 -3.63739,0 -7.89602,-2.01952 -7.89602,-2.01952 -2.01476,-0.94813 -3.8462,-2.21453 -5.40604,-3.73617 -4.4827,3.6002 -10.20273,5.65893 -16.23627,5.65893 h -3.39008 c -12.24799,0 -23.46962,-6.97507 -29.79357,-17.59923 -2.30397,4.81689 -5.87318,9.06022 -10.53423,12.17962 l -17.76826,11.9238 c -3.04929,2.01562 -6.56923,3.06662 -10.21985,3.06662 -2.5289,0 -5.02109,-0.54301 -7.30995,-1.53492 23.04819,56.01292 79.54432,95.70481 145.42049,95.70481 68.9511,0 127.61624,-43.47443 148.41719,-103.63716 l -30.22284,-0.024" style="fill:#e3b025;fill-opacity:1;fill-rule:nonzero;stroke:none;stroke-width:0.169734"></path><path id="path2" d="m 260.20963,229.98496 v 2.06566 c 10.34106,-14.25938 27.24163,-22.79699 45.36313,-22.79699 h 34.52054 c 11.61318,0 21.05888,9.0825 21.05888,20.24081 v 5.38396 c 9.719,-15.33549 27.2627,-25.63497 47.32015,-25.63497 h 33.85518 c 11.60981,0 21.05552,9.0825 21.05552,20.23913 v 5.37207 c 6.03912,-9.50681 15.09106,-17.06844 25.87933,-21.44249 -25.01199,-46.12525 -74.95967,-77.66183 -132.37391,-77.66183 -49.75075,0 -93.89025,23.6779 -121.06298,60.00269 14.50447,5.37718 24.38416,18.71658 24.38416,34.23196 z m 214.87318,98.62073 c -6.08671,0 -11.47067,-2.78395 -15.10464,-6.94856 -0.59579,0.99787 -1.2255,1.98252 -1.96895,2.91145 l -0.47536,0.53959 -38.94718,40.62091 c -2.98054,3.60024 -7.40892,5.65234 -12.22427,5.65234 -3.10275,0 -6.08329,-0.866 -8.63947,-2.50696 l -40.28806,-25.55958 c 0,0 -4.63714,-2.65875 -5.57915,-3.5439 l -0.23769,-0.14915 0.0144,-0.0289 c -1.88745,-1.86892 -3.0569,-4.45873 -3.0569,-7.32298 v -1.14963 c 0,-1.4653 0.31418,-2.85102 0.86734,-4.11487 -2.47813,1.07087 -5.20574,1.70144 -8.09294,1.70144 0,0 -21.58506,-0.0828 -21.32707,-0.0828 -3.63739,0 -7.89602,-2.01952 -7.89602,-2.01952 -2.01476,-0.94813 -3.8462,-2.21453 -5.40604,-3.73617 -4.4827,3.6002 -10.20273,5.65893 -16.23627,5.65893 h -3.39008 c -12.24799,0 -23.46962,-6.97507 -29.79357,-17.59923 -2.30397,4.81689 -5.87318,9.06022 -10.53423,12.17962 l -17.76826,11.9238 c -2.75753,1.82413 -5.90166,2.84847 -9.17704,3.02687 23.03087,51.2225 75.79546,87.13121 137.06773,87.13121 64.96571,0 120.37539,-40.37081 140.90642,-96.56551 l -22.71207,-0.0192" style="fill:#fee60f;fill-opacity:1;fill-rule:nonzero;stroke:none;stroke-width:0.169734"></path><path id="path45" d="m 352.65869,229.49444 c 0,-6.657 -5.63347,-12.06131 -12.56539,-12.06131 h -34.52054 c -16.09606,0 -30.29669,7.81793 -38.70786,19.67389 -0.79551,1.11171 -1.25635,2.47131 -1.25635,3.90557 0,1.13212 0.26607,2.21501 0.77449,3.16381 l 7.00885,12.7233 v 0 l 0.0856,0.1376 c 1.4181,2.57658 4.82079,3.92256 7.5126,2.92454 2.69196,-0.99465 4.25199,-3.80545 3.47087,-6.24793 -0.0861,-0.27329 -0.16551,-0.50751 -0.24827,-0.80624 v 0 l -1.16959,-3.63739 c -0.10874,-0.30745 -0.12991,-0.63649 -0.12991,-1.0048 0,-2.08097 1.75504,-3.7749 3.94243,-3.7749 h 18.67005 c 2.18108,0 3.94122,1.69393 3.94122,3.7749 v 8.41198 l -47.037,17.37281 c -2.9943,1.10531 -5.06896,3.87877 -5.06896,7.12221 0,0.59545 0.0486,1.15366 0.18428,1.69393 l 3.62805,15.29271 c 2.914,13.03898 14.01698,22.18932 25.92096,22.18932 h 3.39008 c 6.39001,0 11.93688,-3.42843 14.79012,-8.43696 l 4.19242,-7.69827 v 5.30755 c 0,5.94396 4.99867,10.87743 11.15153,10.94719 v 0 c 0.56182,0.0385 1.12706,0.0587 1.69567,0.0587 h 19.03566 c 6.23942,0 11.31959,-4.84335 11.31959,-10.82969 z m -43.19224,59.94583 c 0,2.08178 -1.76014,3.77249 -3.94123,3.77249 h -5.45521 c -1.76524,0 -3.28269,-1.10055 -3.75791,-2.66992 l -4.57113,-14.15752 17.72548,-6.51559 v 19.57054" style="fill:#e22739;fill-opacity:1;fill-rule:nonzero;stroke:none;stroke-width:0.169734"></path><path id="path46" d="m 557.44625,290.36516 c 0,16.6166 -14.09305,30.10265 -31.45681,30.10265 l -50.90663,-0.0192 c -6.24284,0 -11.30092,-4.93636 -11.30092,-10.92664 V 262.3376 c 0,-24.79135 21.00461,-44.90312 46.90093,-44.90312 h 34.16575 c 6.95232,0 12.58748,5.40431 12.58748,12.06131 z m -53.70554,0.1987 c 0,3.04997 3.60683,5.54947 6.81312,5.54947 3.19609,0 6.78257,-2.4995 6.78257,-5.54947 v -43.50724 c 0,-3.06541 -3.58648,-5.5639 -6.78257,-5.5639 -3.20629,0 -6.81312,2.49849 -6.81312,5.5639 v 43.50724" style="fill:#e22739;fill-opacity:1;fill-rule:nonzero;stroke:none;stroke-width:0.169734"></path><path id="path47" d="m 442.32751,217.42125 h -33.85518 c -25.89122,0 -46.90262,20.1135 -46.90262,44.90311 v 47.18625 c 0,5.99043 5.07849,10.83056 11.31618,10.83056 h 19.03907 c 9.71048,0 18.0835,-5.5065 21.86344,-13.45617 l 0.10874,-0.17898 v 32.60831 c -10.0211,-6.32852 -21.05552,-10.3373 -30.8271,-10.3373 -13.76881,0 -19.02041,2.87816 -20.97064,7.50543 l 40.33901,25.59013 c 1.12701,0.71867 2.48997,1.13365 3.91914,1.13365 2.36271,0 4.44194,-1.08135 5.75058,-2.77461 l 39.18482,-40.86874 c 2.27442,-2.83187 3.60683,-6.35841 3.60683,-10.16419 v -79.91614 c 0,-6.65358 -5.63684,-12.06131 -12.57217,-12.06131 z m -28.41858,73.26737 c 0,3.05454 -3.60857,5.5476 -6.82501,5.5476 v 0 c -3.21644,0 -6.82333,-2.49306 -6.82333,-5.5476 v -43.50623 c 0,-3.0671 3.60689,-5.56217 6.82333,-5.56217 v 0 c 3.21644,0 6.82501,2.49507 6.82501,5.56217 v 43.50623" style="fill:#e22739;fill-opacity:1;fill-rule:nonzero;stroke:none;stroke-width:0.169734"></path><path id="path48" d="m 226.49553,201.74291 -53.68775,-8.07423 c -1.62503,-0.23576 -3.28197,-0.35797 -4.98269,-0.35797 -8.52573,0 -16.29107,3.13667 -22.08596,8.25418 l -19.4862,16.87492 30.98905,4.64734 v 150.10449 l 38.44276,-25.79177 c 2.45793,-1.62504 4.04053,-4.32021 4.04053,-7.38664 v -24.3728 c 0,-0.5396 0.46478,-0.97801 1.00649,-0.97801 0.3469,0 0.61715,0.14915 0.80219,0.36134 l 10.46255,12.11014 c 1.71265,1.69413 4.11082,2.77808 6.78141,2.77808 2.00369,0 3.84414,-0.58935 5.37174,-1.5979 l 17.77571,-11.92448 c 5.92408,-3.97076 9.79756,-10.52489 9.79756,-17.9864 v -68.4181 c 0,-14.29671 -10.94598,-26.1034 -25.22739,-28.23695 z m -26.73788,28.07062 c 0,0 2.95644,0.3902 4.23486,0.58049 5.5666,0.90468 9.59712,1.87893 9.59712,11.06324 v 49.23136 c 0,3.05454 -3.60683,5.5476 -6.82448,5.5476 v 0 c -3.21629,0 -7.04517,-2.49306 -7.04517,-5.5476 l 0.0385,-60.87509" style="fill:#e22739;fill-opacity:1;fill-rule:nonzero;stroke:none;stroke-width:0.169734"></path><path id="path49" d="m 241.25374,208.25898 c 3.94224,4.84085 6.29341,10.92751 6.29341,17.55222 v 68.41931 c 0,7.46049 -3.8681,14.01375 -9.79824,17.97855 l -17.78014,11.92856 c -1.52101,1.00702 -3.3577,1.5979 -5.36668,1.5979 -1.86368,0 -3.59086,-0.53449 -5.04298,-1.4295 l 2.43739,2.82773 c 1.71265,1.69413 4.11082,2.77808 6.78141,2.77808 2.00369,0 3.84414,-0.58934 5.37174,-1.5979 l 17.77571,-11.92447 c 5.92408,-3.97077 9.79756,-10.5249 9.79756,-17.9864 v -68.4181 c 0,-8.70904 -4.06766,-16.48795 -10.46918,-21.72598" style="fill:#7c141b;fill-opacity:1;fill-rule:nonzero;stroke:none;stroke-width:0.169734"></path><path id="path50" d="m 199.76174,229.83051 c 0,0 2.95167,0.35797 4.23077,0.56351 3.12806,0.4973 6.39613,1.18985 7.93441,3.59668 -1.2791,-3.79866 -8.05387,-7.11359 -12.11543,-7.77385 -1.27848,-0.19342 -4.25863,-0.57876 -4.25863,-0.57876 0,0 0,57.90643 0,60.35436 0,3.63671 3.2621,7.79926 6.87947,8.9012 -1.63639,-1.06884 -2.69248,-2.62565 -2.71235,-4.20503 l 0.0433,-60.85811" style="fill:#7c141b;fill-opacity:1;fill-rule:nonzero;stroke:none;stroke-width:0.169734"></path><path id="path51" d="m 129.75103,215.41159 -3.4981,3.02803 30.97837,4.65922 v -3.54914 l -27.48027,-4.13811" style="fill:#7c141b;fill-opacity:1;fill-rule:nonzero;stroke:none;stroke-width:0.169734"></path><path id="path52" d="m 196.56122,310.48525 c -0.54161,0 -1.01837,0.43735 -1.01837,0.98123 v 24.37006 c 0,3.06589 -1.57072,5.76434 -4.03442,7.38293 l -34.26645,22.99695 v 6.97503 l 38.44276,-25.79177 c 2.45793,-1.62504 4.04053,-4.32022 4.04053,-7.38664 v -24.37281 c 0,-0.51972 0.43206,-0.93147 0.94216,-0.96799 l -3.30386,-3.82903 c -0.19583,-0.20496 -0.46093,-0.35796 -0.80235,-0.35796" style="fill:#7c141b;fill-opacity:1;fill-rule:nonzero;stroke:none;stroke-width:0.169734"></path><path id="path53" d="m 307.338,301.39192 -4.33162,6.95838 c -2.4153,3.90596 -10.31339,7.82034 -16.7035,7.82034 h -3.39013 c -5.74568,0 -11.29717,-2.14813 -15.84688,-5.82391 5.03706,6.18938 12.35884,10.00156 20.02795,10.00156 h 3.39009 c 6.39001,0 11.93688,-3.42843 14.79011,-8.43695 l 4.19243,-7.69828 c -0.0289,-1.23329 0.0289,-4.94352 0.0289,-6.58112 l -2.15564,3.75998" style="fill:#7c141b;fill-opacity:1;fill-rule:nonzero;stroke:none;stroke-width:0.169734"></path><path id="path54" d="m 309.4614,269.86448 v -5.71526 l -21.89077,8.05897 5.82728,16.61541 c 0.96463,2.45658 3.18916,3.99809 4.91701,4.03119 0,0 -1.49364,-0.70948 -2.05546,-2.42993 -0.52107,-1.60583 -4.51849,-14.03954 -4.51849,-14.03954 l 17.72043,-6.52084" style="fill:#7c141b;fill-opacity:1;fill-rule:nonzero;stroke:none;stroke-width:0.169734"></path><path id="path55" d="m 301.3481,240.30816 h -18.67399 c -2.18734,0 -3.94224,1.70077 -3.94224,3.78168 0,0.36855 0.0192,0.69933 0.12991,1.00654 0,0 1.33207,4.17207 1.41897,4.44194 0.78555,2.44076 -0.77978,5.25155 -3.46563,6.24962 -1.30031,0.4768 -2.74632,0.41763 -4.06242,-0.0544 l 0.63924,1.16608 0.0337,-0.0192 c 0.0337,0.0698 0.0645,0.13423 0.0967,0.20544 1.41896,2.57822 4.77719,3.87161 7.46901,2.87359 2.69195,-0.99466 4.25199,-3.80545 3.47086,-6.24794 -0.0861,-0.27328 -1.4181,-4.44363 -1.4181,-4.44363 -0.10873,-0.30744 -0.1299,-0.63649 -0.1299,-1.0048 0,-2.08096 1.75503,-3.7749 3.94242,-3.7749 0,0 16.83355,0 18.98919,0 2.1539,0 3.3743,2.43739 3.3743,2.43739 -0.57029,-2.63258 -3.08745,-6.61966 -7.87057,-6.61966" style="fill:#7c141b;fill-opacity:1;fill-rule:nonzero;stroke:none;stroke-width:0.169734"></path><path id="path56" d="m 352.66889,262.51451 c 0,-0.15637 -0.01,-0.30408 -0.01,-0.45516 V 229.4942 c 0,-4.28918 -2.34231,-8.04199 -5.86091,-10.18406 1.06591,1.77034 1.68715,3.81902 1.68715,6.00689 v 32.5601 c 0.002,0.15252 0.002,0.30359 0.002,0.4566 v 37.28245 9.90278 c 0,5.98379 -5.07844,10.82465 -11.31786,10.82465 h -19.03056 c -0.57544,0 -1.85353,-0.0539 -1.85353,-0.0539 -2.56638,-0.10874 -3.82411,-0.71271 -5.47898,-1.66083 1.88403,3.36819 5.47388,5.76891 9.64937,5.83204 0,0 1.28998,0.0654 1.85858,0.0654 h 19.03566 c 6.23942,0 11.31959,-4.84335 11.31959,-10.82969 v -9.9089 -37.2736" style="fill:#7c141b;fill-opacity:1;fill-rule:nonzero;stroke:none;stroke-width:0.169734"></path><path id="path57" d="m 557.43605,258.61572 v -29.12128 c 0,-4.28408 -2.344,-8.03863 -5.86091,-10.17728 1.07101,1.76356 1.69057,3.81224 1.69057,6.00011 v 29.12128 c 0,0.0385 0,0.0698 0,0.10873 v 31.64623 c 0,16.61069 -14.08285,30.09655 -31.45681,30.09655 l -50.89648,-0.11932 c -2.12677,0 -4.0974,-0.56351 -5.79471,-1.53743 1.9027,3.40789 5.65215,5.71508 9.9651,5.71508 l 50.90663,0.11932 c 17.36376,0 31.45681,-13.48604 31.45681,-30.10265 v -31.64253 c 0,-0.0385 -0.01,-0.0698 -0.01,-0.10681" style="fill:#7c141b;fill-opacity:1;fill-rule:nonzero;stroke:none;stroke-width:0.169734"></path><path id="path58" d="m 413.9276,301.84679 c -4.66769,9.78553 -13.80278,14.31471 -26.17808,14.31471 h -19.03739 c -2.11657,0 -4.10077,-0.56693 -5.79981,-1.54171 1.90444,3.40404 5.66572,5.72138 9.97357,5.72138 h 19.03907 c 7.3546,0 13.77055,-3.23174 17.80174,-7.56519 2.77341,-2.88753 4.17034,-6.07005 4.17034,-6.07005 l 0.0289,-4.85914" style="fill:#7c141b;fill-opacity:1;fill-rule:nonzero;stroke:none;stroke-width:0.169734"></path><path id="path59" d="m 400.26059,247.18239 c 0,-3.0671 3.69681,-5.54687 6.5959,-5.54687 2.73949,0 4.91037,1.22377 6.25298,3.07046 -0.92844,-2.9177 -4.03288,-7.17465 -8.61907,-7.13731 h -0.74345 c -3.20455,0 -7.66858,2.37287 -7.66858,5.4366 v 43.51301 c 0,5.39705 4.74405,7.98614 7.62105,8.8759 -1.71602,-0.91959 -3.43883,-2.55926 -3.43883,-4.70556 v -43.50623" style="fill:#7c141b;fill-opacity:1;fill-rule:nonzero;stroke:none;stroke-width:0.169734"></path><path id="path60" d="m 503.74576,247.18239 c 0,-3.45407 3.87333,-5.68948 6.80807,-5.68948 2.46962,0 5.0411,1.51572 6.04591,3.21307 -0.93182,-2.9177 -3.98703,-7.17465 -8.56985,-7.13731 h -0.74687 c -4.06343,0 -7.67027,3.13162 -7.67027,6.1953 v 42.75431 c 0,5.39705 4.74578,7.88803 7.62615,8.77645 -1.7177,-0.88842 -3.46427,-2.52616 -3.49314,-4.65446 v -43.45788" style="fill:#7c141b;fill-opacity:1;fill-rule:nonzero;stroke:none;stroke-width:0.169734"></path><path id="path61" d="m 449.03541,219.30018 c 1.06759,1.77034 1.68373,3.81902 1.68373,6.00689 v 79.91369 c 0,3.80578 -1.32562,7.33385 -3.60005,10.16163 l -39.18481,40.87197 c -1.30864,1.69735 -3.3845,2.77413 -5.74717,2.77413 -1.43937,0 -2.80569,-0.41377 -3.92934,-1.13043 l -35.56441,-22.56272 c -0.22084,0.36566 -0.42244,0.74595 -0.59406,1.14703 l 40.33901,25.59013 c 1.12701,0.71867 2.48998,1.13365 3.91914,1.13365 2.36272,0 4.44195,-1.08136 5.75059,-2.77462 l 39.18481,-40.86874 c 2.27443,-2.83187 3.60684,-6.3584 3.60684,-10.16419 v -79.91604 c 0,-4.28919 -2.3491,-8.04373 -5.86428,-10.18238" style="fill:#7c141b;fill-opacity:1;fill-rule:nonzero;stroke:none;stroke-width:0.169734"></path></g></svg>