<?xml version="1.0"?><svg id="Rot" xmlns="http://www.w3.org/2000/svg" viewBox="0 0 50 50"><defs></defs><path class="cls-1" fill="#FF1900" d="M4.59,7.56h4.54v4.54H4.59V7.56Zm36.34,4.54h4.54V7.56h-4.54v4.54Zm4.54,13.63h4.54V12.1h-4.54v13.63ZM.04,25.73H4.59V12.1H.04v13.63Zm4.54,4.54h4.54v-4.54H4.59v4.54Zm40.89-4.54h-4.54v4.54h4.54v-4.54ZM9.13,34.82h4.54v-4.54h-4.54v4.54Zm31.8-4.54h-4.54v4.54h4.54v-4.54Zm-27.26,9.09h4.54v-4.54h-4.54v4.54Zm22.72-4.54h-4.54v4.54h4.54v-4.54Zm-18.17,9.09h4.54v-4.54h-4.54v4.54Zm13.63-4.54h-4.54v4.54h4.54v-4.54Zm-9.09,9.09h4.54v-4.54h-4.54v4.54ZM9.13,7.56h9.09V3.02H9.13V7.56Zm22.72,0h9.09V3.02h-9.09V7.56Zm-13.63,4.54h4.54V7.56h-4.54v4.54Zm4.54,4.54h4.54v-4.54h-4.54v4.54Zm4.54-4.54h4.54V7.56h-4.54v4.54Z"></path></svg>