<?xml version="1.0"?><svg id="Rot" xmlns="http://www.w3.org/2000/svg" viewBox="0 0 50 50"><defs></defs><polygon class="cls-1" fill="#FF1900" points="28.85 30.77 40.38 30.77 40.38 26.92 36.54 26.92 36.54 23.08 32.69 23.08 32.69 23.08 32.69 23.08 32.69 19.23 28.85 19.23 28.85 19.23 28.85 19.03 28.85 15.38 25 15.38 25 11.54 21.15 11.54 21.15 7.69 17.31 7.69 17.31 7.69 17.31 3.85 13.46 3.85 13.46 0 9.62 0 9.62 42.31 17.31 42.31 17.31 38.46 17.31 38.46 21.15 38.46 21.15 42.31 24.4 42.31 25 42.31 25 46.15 28.85 46.15 28.85 50 32.69 50 32.69 46.15 36.54 46.15 36.54 38.46 32.69 38.46 32.69 34.62 28.85 34.62 28.85 34.62 28.85 30.77"></polygon></svg>