<?xml version="1.0" encoding="UTF-8" standalone="no"?>
<!-- Created with Inkscape (http://www.inkscape.org/) -->

<svg
   version="1.1"
   id="svg1"
   width="573.33331"
   height="133.33333"
   viewBox="0 0 573.33331 133.33333"
   sodipodi:docname="pulp_logo63.ai"
   xmlns:inkscape="http://www.inkscape.org/namespaces/inkscape"
   xmlns:sodipodi="http://sodipodi.sourceforge.net/DTD/sodipodi-0.dtd"
   xmlns="http://www.w3.org/2000/svg"
   xmlns:svg="http://www.w3.org/2000/svg">
  <defs
     id="defs1">
    <mask
       maskUnits="userSpaceOnUse"
       x="0"
       y="0"
       width="1"
       height="1"
       id="mask1">
      <path
         id="path1"
         d="M 0,100 H 100 V 0 H 0 Z"
         style="fill:#000000;fill-opacity:1;fill-rule:nonzero;stroke:none"
         transform="matrix(1.3333333,0,0,-1.3333333,0,133.33333)"
         clip-path="url(#clipPath2)" />
      <g
         id="g4"
         clip-path="url(#clipPath5)">
        <path
           d="M 0,100 H 100 V 0 H 0 Z"
           style="fill:#ffffff;fill-opacity:1;fill-rule:nonzero;stroke:none"
           transform="matrix(1.3333333,0,0,-1.3333333,0,133.33333)"
           clip-path="url(#clipPath3)"
           id="path4" />
      </g>
    </mask>
    <clipPath
       clipPathUnits="userSpaceOnUse"
       id="clipPath2">
      <path
         d="M 0,100 H 100 V 0 H 0 Z"
         id="path2" />
    </clipPath>
    <clipPath
       clipPathUnits="userSpaceOnUse"
       id="clipPath3">
      <path
         d="M 0,100 H 100 V 0 H 0 Z"
         id="path3" />
    </clipPath>
    <clipPath
       clipPathUnits="userSpaceOnUse"
       id="clipPath5">
      <path
         d="M 0,100 H 100 V 0 H 0 Z"
         transform="matrix(1.3333333,0,0,-1.3333333,0,133.33333)"
         id="path5" />
    </clipPath>
    <clipPath
       clipPathUnits="userSpaceOnUse"
       id="clipPath6">
      <path
         d="M 0,100 H 100 V 0 H 0 Z"
         transform="translate(0,-100)"
         id="path6" />
    </clipPath>
    <clipPath
       clipPathUnits="userSpaceOnUse"
       id="clipPath8">
      <path
         d="M 0,100 H 430 V 0 H 0 Z"
         transform="matrix(1.3333333,0,0,-1.3333333,0,133.33333)"
         id="path8" />
    </clipPath>
    <mask
       maskUnits="userSpaceOnUse"
       x="0"
       y="0"
       width="1"
       height="1"
       id="mask8">
      <path
         id="path9"
         d="M 110,100 H 210 V 0 H 110 Z"
         style="fill:#000000;fill-opacity:1;fill-rule:nonzero;stroke:none"
         transform="matrix(1.3333333,0,0,-1.3333333,0,133.33333)"
         clip-path="url(#clipPath10)" />
      <g
         id="g12"
         clip-path="url(#clipPath13)">
        <path
           d="M 110,100 H 210 V 0 H 110 Z"
           style="fill:#ffffff;fill-opacity:1;fill-rule:nonzero;stroke:none"
           transform="matrix(1.3333333,0,0,-1.3333333,0,133.33333)"
           clip-path="url(#clipPath11)"
           id="path12" />
      </g>
    </mask>
    <clipPath
       clipPathUnits="userSpaceOnUse"
       id="clipPath10">
      <path
         d="M 110,100 H 210 V 0 H 110 Z"
         id="path10" />
    </clipPath>
    <clipPath
       clipPathUnits="userSpaceOnUse"
       id="clipPath11">
      <path
         d="M 110,100 H 210 V 0 H 110 Z"
         id="path11" />
    </clipPath>
    <clipPath
       clipPathUnits="userSpaceOnUse"
       id="clipPath13">
      <path
         d="M 110,100 H 210 V 0 H 110 Z"
         transform="matrix(1.3333333,0,0,-1.3333333,0,133.33333)"
         id="path13" />
    </clipPath>
    <clipPath
       clipPathUnits="userSpaceOnUse"
       id="clipPath14">
      <path
         d="M 110,100 H 210 V 0 H 110 Z"
         transform="translate(-110.00001,-100)"
         id="path14" />
    </clipPath>
    <clipPath
       clipPathUnits="userSpaceOnUse"
       id="clipPath16">
      <path
         d="M 0,100 H 430 V 0 H 0 Z"
         transform="matrix(1.3333333,0,0,-1.3333333,0,133.33333)"
         id="path16" />
    </clipPath>
    <mask
       maskUnits="userSpaceOnUse"
       x="0"
       y="0"
       width="1"
       height="1"
       id="mask16">
      <path
         id="path17"
         d="M 220,100 H 320 V 0 H 220 Z"
         style="fill:#000000;fill-opacity:1;fill-rule:nonzero;stroke:none"
         transform="matrix(1.3333333,0,0,-1.3333333,0,133.33333)"
         clip-path="url(#clipPath18)" />
      <g
         id="g22"
         clip-path="url(#clipPath23)">
        <path
           d="M 220,100 H 320 V 0 H 220 Z"
           style="fill:#ffffff;fill-opacity:1;fill-rule:nonzero;stroke:none"
           transform="matrix(1.3333333,0,0,-1.3333333,0,133.33333)"
           clip-path="url(#clipPath19)"
           id="path21" />
        <path
           d="m 0,0 c 2.881,2.88 2.921,7.52 0.08,10.36 -2.84,2.84 -7.47,2.8 -10.35,-0.08 -2.839,2.84 -7.469,2.8 -10.349,-0.08 C -23.5,7.32 -23.54,2.68 -20.699,-0.15 L -10.43,-10.42 0.011,0.02 Z"
           style="fill:#000000;fill-opacity:1;fill-rule:nonzero;stroke:none"
           transform="matrix(1.3333333,0,0,-1.3333333,340.4128,34.679733)"
           clip-path="url(#clipPath20)"
           id="path22" />
      </g>
    </mask>
    <clipPath
       clipPathUnits="userSpaceOnUse"
       id="clipPath18">
      <path
         d="M 220,100 H 320 V 0 H 220 Z"
         id="path18" />
    </clipPath>
    <clipPath
       clipPathUnits="userSpaceOnUse"
       id="clipPath19">
      <path
         d="M 220,100 H 320 V 0 H 220 Z"
         id="path19" />
    </clipPath>
    <clipPath
       clipPathUnits="userSpaceOnUse"
       id="clipPath20">
      <path
         d="M 220,100 H 320 V 0 H 220 Z"
         transform="translate(-255.30961,-73.990202)"
         id="path20" />
    </clipPath>
    <clipPath
       clipPathUnits="userSpaceOnUse"
       id="clipPath23">
      <path
         d="M 220,100 H 320 V 0 H 220 Z"
         transform="matrix(1.3333333,0,0,-1.3333333,0,133.33333)"
         id="path23" />
    </clipPath>
    <clipPath
       clipPathUnits="userSpaceOnUse"
       id="clipPath24">
      <path
         d="M 220,100 H 320 V 0 H 220 Z"
         transform="translate(-220,-100)"
         id="path24" />
    </clipPath>
    <clipPath
       clipPathUnits="userSpaceOnUse"
       id="clipPath26">
      <path
         d="M 0,100 H 430 V 0 H 0 Z"
         transform="matrix(1.3333333,0,0,-1.3333333,0,133.33333)"
         id="path26" />
    </clipPath>
    <mask
       maskUnits="userSpaceOnUse"
       x="0"
       y="0"
       width="1"
       height="1"
       id="mask26">
      <path
         id="path27"
         d="M 330,100 H 430 V 0 H 330 Z"
         style="fill:#000000;fill-opacity:1;fill-rule:nonzero;stroke:none"
         transform="matrix(1.3333333,0,0,-1.3333333,0,133.33333)"
         clip-path="url(#clipPath28)" />
      <g
         id="g30"
         clip-path="url(#clipPath31)">
        <path
           d="M 330,100 H 430 V 0 H 330 Z"
           style="fill:#ffffff;fill-opacity:1;fill-rule:nonzero;stroke:none"
           transform="matrix(1.3333333,0,0,-1.3333333,0,133.33333)"
           clip-path="url(#clipPath29)"
           id="path30" />
      </g>
    </mask>
    <clipPath
       clipPathUnits="userSpaceOnUse"
       id="clipPath28">
      <path
         d="M 330,100 H 430 V 0 H 330 Z"
         id="path28" />
    </clipPath>
    <clipPath
       clipPathUnits="userSpaceOnUse"
       id="clipPath29">
      <path
         d="M 330,100 H 430 V 0 H 330 Z"
         id="path29" />
    </clipPath>
    <clipPath
       clipPathUnits="userSpaceOnUse"
       id="clipPath31">
      <path
         d="M 330,100 H 430 V 0 H 330 Z"
         transform="matrix(1.3333333,0,0,-1.3333333,0,133.33333)"
         id="path31" />
    </clipPath>
    <clipPath
       clipPathUnits="userSpaceOnUse"
       id="clipPath32">
      <path
         d="M 330,100 H 430 V 0 H 330 Z"
         transform="translate(-330.00001,-100)"
         id="path32" />
    </clipPath>
    <clipPath
       clipPathUnits="userSpaceOnUse"
       id="clipPath34">
      <path
         d="M 0,100 H 430 V 0 H 0 Z"
         transform="matrix(1.3333333,0,0,-1.3333333,0,133.33333)"
         id="path34" />
    </clipPath>
  </defs>
  <sodipodi:namedview
     id="namedview1"
     pagecolor="#ffffff"
     bordercolor="#000000"
     borderopacity="0.25"
     inkscape:showpageshadow="2"
     inkscape:pageopacity="0.0"
     inkscape:pagecheckerboard="0"
     inkscape:deskcolor="#d1d1d1">
    <inkscape:page
       x="0"
       y="0"
       inkscape:label="1"
       id="page1"
       width="573.33331"
       height="133.33333"
       margin="0"
       bleed="0" />
  </sodipodi:namedview>
  <g
     id="layer-MC0"
     inkscape:groupmode="layer"
     inkscape:label="logo-generator">
    <g
       mask="url(#mask1)"
       id="g8"
       clip-path="url(#clipPath8)">
      <g
         id="g7">
        <path
           d="M 0,0 H 100 V -50 H 50 v -50 H 0 Z"
           style="fill:#000000;fill-opacity:1;fill-rule:nonzero;stroke:none"
           transform="scale(1.3333333,-1.3333333)"
           clip-path="url(#clipPath6)"
           id="path7" />
      </g>
    </g>
    <g
       mask="url(#mask8)"
       id="g16"
       clip-path="url(#clipPath16)">
      <g
         id="g15">
        <path
           d="M 0,0 H 50 V -25 L 62.5,-37.5 75,-25 V 0 h 25 V -50 L 50,-100 0,-50 Z"
           style="fill:#000000;fill-opacity:1;fill-rule:nonzero;stroke:none"
           transform="matrix(1.3333333,0,0,-1.3333333,146.66667,0)"
           clip-path="url(#clipPath14)"
           id="path15" />
      </g>
    </g>
    <g
       mask="url(#mask16)"
       id="g26"
       clip-path="url(#clipPath26)">
      <g
         id="g25">
        <path
           d="m 0,0 h 50 v -50 h 25 c 13.81,0 25,-11.19 25,-25 0,-13.81 -11.19,-25 -25,-25 H 50 0 Z"
           style="fill:#000000;fill-opacity:1;fill-rule:nonzero;stroke:none"
           transform="matrix(1.3333333,0,0,-1.3333333,293.33333,0)"
           clip-path="url(#clipPath24)"
           id="path25" />
      </g>
    </g>
    <g
       mask="url(#mask26)"
       id="g34"
       clip-path="url(#clipPath34)">
      <g
         id="g33">
        <path
           d="M 0,0 H 75 L 100,-25 75,-50 H 50 v -50 H 0 Z"
           style="fill:#000000;fill-opacity:1;fill-rule:nonzero;stroke:none"
           transform="matrix(1.3333333,0,0,-1.3333333,440,0)"
           clip-path="url(#clipPath32)"
           id="path33" />
      </g>
    </g>
  </g>
</svg>
