<?xml version="1.0" encoding="UTF-8"?>
<svg id="logo-generator" xmlns="http://www.w3.org/2000/svg" version="1.1" viewBox="0 0 430 100">
  <defs>
    <style>
      .st0 {
        fill: #ffffff;
      }
    </style>
  </defs>
  <path class="st0" d="M110,0h50v50h25V0h25v100h-50c-27.6,0-50-22.4-50-50h0V0Z"/>
  <path class="st0" d="M75,0H0v100h50v-50h25l25-25L75,0ZM18.6,40.4V9.7l18.4,15.4-18.4,15.4Z"/>
  <path class="st0" d="M295,50h-25V0h-50v50c0,27.6,22.4,50,50,50h25l25-25-25-25ZM257,37.1h-24.1V13h24.1v24.1Z"/>
  <g>
    <path class="st0" d="M356.6,71.8v5h5c0-2.7-2.2-5-5-5Z"/>
    <path class="st0" d="M348.5,76.7h5v-5c-2.7,0-5,2.2-5,5Z"/>
    <path class="st0" d="M405,0h-75v100h50v-50h25c13.8,0,25-11.2,25-25S418.8,0,405,0ZM365,82.4h-5v5h-2.5v-4.9h-1.3v4.9h-2.3v-4.9h-1.3v4.9h-2.6v-5h-5v-9.9c0-5.5,4.4-9.9,9.9-9.9s9.9,4.4,9.9,9.9v9.9Z"/>
  </g>
</svg>
