<svg id="Gruppe_125" data-name="Gruppe 125" xmlns="http://www.w3.org/2000/svg" xmlns:xlink="http://www.w3.org/1999/xlink" width="144.109" height="93.733" viewBox="0 0 144.109 93.733">
  <defs>
    <clipPath id="clip-path">
      <rect id="Rechteck_261" data-name="Rechteck 261" width="144.109" height="93.733" fill="none"></rect>
    </clipPath>
  </defs>
  <g id="Gruppe_124" data-name="Gruppe 124" clip-path="url(#clip-path)">
    <path id="Pfad_56" data-name="Pfad 56" d="M95.216,21.8,92.192,32.1H53.348L50.325,21.8c.752.467,2.167,1.382,2.495,1.65l.036.029,0,.047c.116,3.289,2.144,5.586,4.934,5.586A5.608,5.608,0,0,0,59,28.975a4.394,4.394,0,0,0,2.548-1.641l.082-.087.073.094a6.024,6.024,0,0,0,4.676,2.333h.05a5.589,5.589,0,0,0,4.924-3.147,7.938,7.938,0,0,0,.252-5.622l-.017-.049.03-.044a10.223,10.223,0,0,1,1.149-1.4,10.224,10.224,0,0,1,1.149,1.4l.03.044-.017.049a7.938,7.938,0,0,0,.251,5.622,5.591,5.591,0,0,0,4.924,3.147h.052a6.022,6.022,0,0,0,4.675-2.333l.073-.094.082.087a4.394,4.394,0,0,0,2.548,1.641,5.608,5.608,0,0,0,1.212.136c2.79,0,4.818-2.3,4.934-5.586l0-.047.036-.029c.328-.268,1.743-1.182,2.494-1.65M53.374,23.182v.145c.012,3.055,1.833,5.189,4.429,5.189a5.1,5.1,0,0,0,1.1-.124,4.47,4.47,0,0,0,2.472-1.672c.1-.113.211-.23.322-.348a5.575,5.575,0,0,0,4.682,2.707h.031a4.759,4.759,0,0,0,4.09-2.185,6.632,6.632,0,0,0,.48-6.125,15.475,15.475,0,0,1,1.764-2.107l.028-.029.029.029a15.545,15.545,0,0,1,1.763,2.107,6.632,6.632,0,0,0,.48,6.125,4.758,4.758,0,0,0,4.089,2.185h.032a5.577,5.577,0,0,0,4.682-2.707c.111.118.217.235.321.348a4.472,4.472,0,0,0,2.473,1.672,5.114,5.114,0,0,0,1.1.124c2.6,0,4.418-2.134,4.43-5.189v-.145a32.489,32.489,0,0,1,3.289-2.2l.968-3.3a5.622,5.622,0,0,0-3.836,2.177l-.219.292-.353-.1a5.849,5.849,0,0,0-1.626-.273,4.052,4.052,0,0,0-.869.1c.7,1.267,1.248,3.475.449,5.019A2.432,2.432,0,0,1,85.9,25.3a4.8,4.8,0,0,1-.882-4.209q.057-.3.118-.592c.081-.4.147-.735.2-1.073a9.388,9.388,0,0,0,.157-1.61c0-.82-.413-2.039-1.548-2.039a1.867,1.867,0,0,0-1.64,2.039,11.755,11.755,0,0,0,.241,2.1l.047.25a18.154,18.154,0,0,1,.291,1.966,4.382,4.382,0,0,1-2,4.195,2.764,2.764,0,0,1-1.569.5,3.066,3.066,0,0,1-2.719-1.805c-.92-1.93.1-4.047,1.127-5.483.144-.2.342-.448.528-.672a5.6,5.6,0,0,0-.742-.143,10.608,10.608,0,0,0-1.287-.061h-.365l-.164-.246a11.7,11.7,0,0,0-2.92-3.036,11.649,11.649,0,0,0-2.92,3.032l-.156.25h-.376a10.566,10.566,0,0,0-1.285.061,5.7,5.7,0,0,0-.742.142c.228.275.4.5.528.672,1.022,1.437,2.047,3.554,1.127,5.485a3.071,3.071,0,0,1-2.72,1.8,2.771,2.771,0,0,1-1.57-.5,4.392,4.392,0,0,1-2-4.2,17.937,17.937,0,0,1,.277-1.869L63,19.916a12.213,12.213,0,0,0,.239-2.1,1.871,1.871,0,0,0-1.647-2.04c-1.1,0-1.6,1.193-1.6,2.04a9.488,9.488,0,0,0,.152,1.609c.063.366.137.728.208,1.067l.027.135c.031.154.062.308.093.464a4.877,4.877,0,0,1-.829,4.208,2.436,2.436,0,0,1-4.076-.406c-.8-1.546-.249-3.753.451-5.02a4.061,4.061,0,0,0-.87-.1,5.868,5.868,0,0,0-1.625.273l-.359.1-.218-.3a5.614,5.614,0,0,0-3.83-2.171l.968,3.3a32.675,32.675,0,0,1,3.29,2.2m.835,11.856H91.331l.687-2.34H53.523Z" fill="#d29c05"></path>
    <path id="Pfad_57" data-name="Pfad 57" d="M64.133,42.153h1.993c.441,0,.541-.017.633-.091l.059.033-.009.093c0,.21-.008.356-.008.449s.008.24.008.446l.009.092h-.059a.422.422,0,0,0-.1-.175.224.224,0,0,0-.112-.07c-.09-.045-.139-.053-.44-.053H64.28v1.308a2.219,2.219,0,0,1,1.1-.245c1.056,0,1.73.588,1.73,1.484A1.7,1.7,0,0,1,65.294,47.1a3.14,3.14,0,0,1-1.026-.19,1.118,1.118,0,0,0-.251-.064.211.211,0,0,0-.2.151H63.76V46.9c.007-.2.007-.391.007-.562s0-.354-.007-.558v-.094h.056a1.491,1.491,0,0,0,.367.618,1.277,1.277,0,0,0,.9.378A1.1,1.1,0,0,0,66.2,45.5a1.039,1.039,0,0,0-1.113-1.122,1.145,1.145,0,0,0-.99.482l-.337-.2V42.108a.993.993,0,0,0,.373.045m4.787,2.106a1,1,0,0,1-.6-.925c0-.761.737-1.272,1.836-1.272s1.789.5,1.789,1.272c0,.533-.336.888-1.027,1.085.81.2,1.191.612,1.191,1.272a1.222,1.222,0,0,1-.661,1.119,2.334,2.334,0,0,1-1.268.276c-1.267,0-1.987-.5-1.987-1.387a1.162,1.162,0,0,1,.5-.99,1.98,1.98,0,0,1,.638-.29,2.082,2.082,0,0,1-.41-.16m1.207,2.449a1.054,1.054,0,1,0-1.04-1.075.957.957,0,0,0,1.04,1.075m0-2.47c.653,0,.985-.3.985-.9,0-.559-.348-.871-.98-.871a.835.835,0,0,0-.934.892c0,.576.317.874.929.874M54.8,46.991A.388.388,0,0,0,55,46.883c.124-.118.143-.233.143-.687V43.524l-.009-.364c0-.289-.043-.4-.186-.486a.641.641,0,0,0-.335-.093v-.06a2.564,2.564,0,0,0,1.319-.494l.042.015c0,.066-.007.114-.007.144,0,.126-.006.387-.006.778V46.2a1.493,1.493,0,0,0,.058.556.4.4,0,0,0,.279.239v.059H54.8Zm4.153-2.681a1,1,0,0,1-.6-.923c0-.764.737-1.275,1.837-1.275,1.084,0,1.787.505,1.787,1.275,0,.53-.339.886-1.027,1.082.81.2,1.192.612,1.192,1.271a1.232,1.232,0,0,1-.66,1.121,2.353,2.353,0,0,1-1.272.277c-1.261,0-1.99-.5-1.99-1.388a1.157,1.157,0,0,1,.5-.99,1.9,1.9,0,0,1,.642-.291,1.891,1.891,0,0,1-.409-.159m1.2,2.448a1.053,1.053,0,1,0-1.039-1.073.96.96,0,0,0,1.039,1.073m-.005-2.469c.655,0,.985-.3.985-.9,0-.558-.345-.871-.98-.871a.836.836,0,0,0-.931.9c0,.571.315.872.926.872" fill="#d29c05"></path>
    <path id="Pfad_58" data-name="Pfad 58" d="M39.007,40.951h.2l1.2,5.8L23.278,69.334h-.644L40.119,46.3Zm19.92,46.461a6.534,6.534,0,0,1-.488-2.6V75.044c-.106-.063-.207-.133-.316-.2v9.465a5.072,5.072,0,0,0,.8,3.1m-.8-35.778c.109-.068.21-.134.316-.2v-.6h-.316Zm.21,12.2c0-3.505,1.981-7.054,5.765-7.054a5.351,5.351,0,0,1,2.361.529,5.153,5.153,0,0,0-2.86-.847c-3.662,0-5.581,3.465-5.581,6.877a8.054,8.054,0,0,0,1.234,4.44,8.31,8.31,0,0,1-.919-3.945M48.359,49.239H41.685v.312h6.99V42.862h-.316Zm.811,26a6.375,6.375,0,0,1-.495-2.606V50.838h-.316v21.3a5.413,5.413,0,0,0,.811,3.1M90.885,47.075a7.122,7.122,0,0,0-1.817-.277c-2.03,0-2.03,1.233-2.03,1.7v1.664h.311V48.522c0-.852.414-1.415,1.844-1.415a8.344,8.344,0,0,1,2.024.359l1.588-6.495-.411-.066ZM124.876,51.9a4.229,4.229,0,0,1,.314-.288v-.777h-.314Zm-33.87,4.813c.074-.169.148-.335.224-.5l1.3-5.38h-.422L90.763,56.4H87.038V72.141a5.371,5.371,0,0,0,.811,3.109,6.371,6.371,0,0,1-.5-2.617V56.716Zm-14.391,0h2.818V56.4H76.57Zm26.747-.7a5.2,5.2,0,0,1,2.268.485,4.805,4.805,0,0,0-2.765-.8c-3.513,0-4.545,2.15-4.853,3.347h.457c.458-1.268,1.668-3.033,4.893-3.033m-.837,20.838a12.977,12.977,0,0,1-6.066-1.412,12.561,12.561,0,0,0,6.559,1.719c6.874,0,10.75-3.477,12.389-7.165l-.429-.22c-2.034,4.213-6.306,7.078-12.453,7.078m12.747-11.325H97.4a5.1,5.1,0,0,0,.79,1.966,5.194,5.194,0,0,1-.506-1.655h17.924a16.038,16.038,0,0,0-1.975-10.259,16.58,16.58,0,0,1,1.636,9.948m1.753,10.661-.236.307h9.69l-.214-.312Zm-38.088,0-.227.309,9.935.008-.214-.315Zm54.331-25.5-1.441,6.753a10.87,10.87,0,0,0-2.012-.2c-3.412,0-4.939,2.322-4.939,7.529v7.364a5.273,5.273,0,0,0,.8,3.106,6.81,6.81,0,0,1-.488-2.609V64.842c0-4.993,1.61-7.243,4.451-7.243a12.056,12.056,0,0,1,2.514.286l1.5-7.094ZM50.42,88.372l-.231.313,9.538,0-.212-.314Zm-.669-12.184-9.235.006-.232.307h9.682ZM39.99,68.394l-1.533,7.8H13.729l.055.307H38.8l1.676-8.526ZM19.541,47.263a12.476,12.476,0,0,0-5.3,1.229l-.1.53a14.267,14.267,0,0,1,5.893-1.45h9.385l.231-.309ZM76.832,63c0,7.51-5.709,13.618-12.734,13.618a10.79,10.79,0,0,1-5.048-1.221A10.524,10.524,0,0,0,64.6,76.924c6.929,0,12.558-6.026,12.558-13.433a13.764,13.764,0,0,0-2-7.221A14.024,14.024,0,0,1,76.832,63" fill="#d29c05"></path>
    <path id="Pfad_59" data-name="Pfad 59" d="M50.366,87.852a5.632,5.632,0,0,0,1.063-3.544V53.871a5.553,5.553,0,0,0-1.1-3.19H57.6s0,1.986.006,1.963a10.925,10.925,0,0,1,6.828-2.35c6.657,0,11.875,5.579,11.875,12.7,0,7.222-5.474,13.1-12.212,13.1a9.98,9.98,0,0,1-6.5-2.3V84.308a5.891,5.891,0,0,0,1.006,3.548Zm52.159-11.517c-8.126,0-12.368-6.568-12.368-13.055A15.085,15.085,0,0,1,93.1,54.185a11.392,11.392,0,0,1,9.381-4.418,11.586,11.586,0,0,1,9.1,3.754,14.984,14.984,0,0,1,3.237,11.494H96.822a6.186,6.186,0,0,0,6.45,5.6,6.613,6.613,0,0,0,5.916-3.761l5.277,2.792c-1.864,3.857-5.837,6.689-11.94,6.689m-23.637-.662a5.58,5.58,0,0,0,1.065-3.539V55.888H76.4l-.87-5.207h4.419V48.147c0-6.4,4.616-7.74,8.483-7.74a27.749,27.749,0,0,1,3.456.342l-1.4,5.723a5.432,5.432,0,0,0-1.424-.2c-1.159,0-2.555.386-2.555,2.224v2.184h5.1l-1.257,5.207H86.513V72.141a5.733,5.733,0,0,0,1,3.532Zm38.084,0a5.821,5.821,0,0,0,1.065-3.539V53.871a5.3,5.3,0,0,0-1.1-3.19h7.416v2.68a7.055,7.055,0,0,1,6.191-3.09,6.9,6.9,0,0,1,2.219.268l-1.349,6.32a10.331,10.331,0,0,0-1.6-.141c-3.729,0-5.46,2.559-5.46,8.052v7.364a6.124,6.124,0,0,0,.992,3.539Zm-76.515,0a5.647,5.647,0,0,0,1.067-3.539V53.871a5.583,5.583,0,0,0-1.1-3.19h7.414V72.134a5.812,5.812,0,0,0,1,3.539Zm-2.428,0H13.57l-.894-5.455L30.714,46.74H19.541a13.076,13.076,0,0,0-5.456,1.253l1.294-7.2H38.443l1.116,5.383L21.582,69.855H34.749a7.907,7.907,0,0,0,4.716-1.485ZM63.6,55.937c-3.54,0-6.1,3.114-6.1,7.4,0,4.255,2.508,7.219,6.1,7.219,3.636,0,6.19-3,6.19-7.3,0-4.238-2.607-7.313-6.19-7.313m33.79,3.637H108.2a5.3,5.3,0,0,0-5.332-4.388c-4.625,0-5.36,3.447-5.476,4.388M47.837,48.717H41.524V42.7h6.313Z" fill="#fff"></path>
    <path id="Pfad_60" data-name="Pfad 60" d="M78.282,78.636h.743l.435,2.59h.012l.429-2.59h.737v3.4H80.2V78.978h-.015l-.474,3.058h-.474L78.7,78.978H78.7v3.058h-.415Zm3.566,0h.542l.7,3.4h-.473l-.153-.867h-.735l-.154.867H81.1ZM81.8,80.772h.593L82.1,79.135h-.009Zm1.753-2.136h.721c.695,0,.765.184.765.928,0,.456-.06.655-.453.77v.011c.326.035.433.2.433.519v.74a2.063,2.063,0,0,0,.032.432H84.6a.645.645,0,0,1-.055-.306v-.768c0-.318-.06-.4-.374-.4h-.155v1.478H83.55Zm.467,1.525h.12c.377,0,.428-.07.428-.577s-.028-.554-.323-.554h-.225Zm1.594,1.875h.471v-1.7H86.1l.739,1.7h.527l-.849-1.8.793-1.6h-.471L86.1,80.185h-.014V78.636h-.471Zm2.151,0h1.282v-.4h-.809V80.493H89v-.4h-.766V79.033h.809v-.4H87.762Z" fill="#d29c05" fill-rule="evenodd"></path>
  </g>
</svg>